:SAMPLES-PER-SECOND 24
:FULLY-SPECIFIED
:DEGREES
56
root  -5.17965 35.9881 26.5012 -178.856 38.1736 179.056
RightUpLeg  20.568 -12.5258 -19.0741
RightLeg  13.5313 1.11061 0.82369
RightFoot  -24.1394 2.18067 20.6768
RightToes  -1.46203e-006 3.27826e-006 1.63871e-007
Spine  4.23665 4.35365 10.466
Spine1  17.3602 6.74141 -5.88066
HEad  -12.6664 23.1113 -16.679
LeftShoulder1  2.40386 -3.9068 -26.314
LeftArm  4.02803 10.7111 -33.9694
LeftForeArm  23.3932 -59.2499 -16.99
LeftHand  -0.732712 1.86155 23.9371
RightShoulder  3.37308 5.96042 29.7255
RightArm  8.546 36.7663 48.2687
RightForeArm  27.8615 70.9869 31.8422
RightHand  0.997441 -9.93893 -25.3891
LeftUpLeg  -37.4511 25.4248 2.04283
LeftLeg  15.1471 11.3094 1.20889
LeftFoot  5.06706 -0.141515 0.740917
LeftToes  1.24767e-006 1.47042e-008 1.32732e-009
57
root  -4.84387 35.716 24.3555 -179.604 32.26 177.53
RightUpLeg  25.6343 -13.6437 -22.2234
RightLeg  13.7987 0.256884 0.801039
RightFoot  -21.5617 2.41004 28.271
RightToes  -1.46203e-006 3.27826e-006 1.63871e-007
Spine  3.57464 7.58548 13.4015
Spine1  14.7179 11.0866 -9.21662
HEad  -6.34897 11.2857 -10.8052
LeftShoulder1  2.49539 -4.13115 -26.5692
LeftArm  7.29548 15.8159 -31.9081
LeftForeArm  22.217 -54.9188 -14.2339
LeftHand  -0.766184 1.39584 22.1814
RightShoulder  3.01776 5.60418 27.1377
RightArm  -1.12316 53.3102 51.559
RightForeArm  40.7978 74.5503 40.3355
RightHand  0.472744 -7.39483 -26.7375
LeftUpLeg  -40.6215 22.713 -3.76645
LeftLeg  21.9283 4.17698 2.43235
LeftFoot  10.5555 -0.758377 3.59194
LeftToes  1.24767e-006 1.47042e-008 1.32732e-009
58
root  -4.67688 35.5241 21.8597 178.713 24.3037 175.854
RightUpLeg  26.6414 -13.4464 -24.1457
RightLeg  24.3689 -6.04693 -3.34404
RightFoot  -9.73682 -0.651959 32.9653
RightToes  -1.46203e-006 3.27826e-006 1.63871e-007
Spine  3.21362 10.576 15.6785
Spine1  12.6932 14.8872 -12.8795
HEad  -0.488294 -2.12484 -6.01393
LeftShoulder1  2.54506 -4.14918 -27.1635
LeftArm  7.00809 20.4167 -27.0135
LeftForeArm  20.4615 -51.0758 -12.3239
LeftHand  -0.854661 1.10091 23.0041
RightShoulder  2.54557 5.03167 23.6712
RightArm  -16.6232 62.1148 43.9418
RightForeArm  64.7594 78.6448 60.5446
RightHand  -0.623141 -2.67304 -26.5723
LeftUpLeg  -39.4151 13.9692 -5.91543
LeftLeg  28.4188 3.08507 2.16139
LeftFoot  10.4834 -1.21275 5.96385
LeftToes  1.24767e-006 1.47042e-008 1.32732e-009
59
root  -4.60485 35.6389 19.6686 175.58 16.1313 175.362
RightUpLeg  20.3315 -9.14754 -21.0896
RightLeg  45.0319 -6.88055 -7.62389
RightFoot  13.6691 -5.50625 24.905
RightToes  -1.46203e-006 3.27826e-006 1.63871e-007
Spine  3.04158 12.7774 16.232
Spine1  14.0014 17.2854 -13.8931
HEad  4.10151 -13.6589 -2.13953
LeftShoulder1  2.44583 -3.85974 -27.1188
LeftArm  1.15563 23.7206 -21.2962
LeftForeArm  19.6289 -51.66 -12.676
LeftHand  -0.857729 1.36527 24.5771
RightShoulder  2.35313 4.75235 22.2826
RightArm  -32.7968 61.5992 27.9598
RightForeArm  98.2455 80.3068 89.5167
RightHand  -2.15981 2.89853 -29.8497
LeftUpLeg  -35.012 11.5481 -8.94895
LeftLeg  32.6353 0.84624 0.943589
LeftFoot  6.87033 -1.26603 7.62522
LeftToes  1.24767e-006 1.47042e-008 1.32732e-009
60
root  -4.44354 35.5347 18.2891 171.312 7.89192 174.988
RightUpLeg  7.83415 -9.43692 -20.6089
RightLeg  71.4941 1.81898 5.68684
RightFoot  31.6216 -7.3796 19.0855
RightToes  -1.46203e-006 3.27826e-006 1.63871e-007
Spine  4.14668 14.2425 13.3425
Spine1  16.754 17.5919 -12.7259
HEad  8.70405 -22.7723 1.17428
LeftShoulder1  2.17842 -3.47796 -25.0198
LeftArm  -4.32649 23.2517 -16.7723
LeftForeArm  22.2897 -55.6662 -14.6449
LeftHand  -0.768725 1.60575 23.4251
RightShoulder  2.75158 5.25187 25.3389
RightArm  -39.2282 49.4018 16.7349
RightForeArm  124.191 80.1252 109.132
RightHand  -3.48633 6.33972 -33.8702
LeftUpLeg  -30.1464 11.4272 -11.1172
LeftLeg  37.1728 -3.66537 -2.59449
LeftFoot  4.41827 -1.15285 8.11832
LeftToes  1.24767e-006 1.47042e-008 1.32732e-009
61
root  -4.12052 35.62 16.7698 167.086 -2.39078 176.979
RightUpLeg  -4.98893 -16.4478 -22.3788
RightLeg  93.7635 -1.31886 17.766
RightFoot  38.2672 -8.47259 18.8109
RightToes  -1.46203e-006 3.27826e-006 1.63871e-007
Spine  2.3451 13.8457 8.59613
Spine1  19.2173 14.5527 -7.98856
HEad  13.5838 -30.4135 3.16805
LeftShoulder1  1.96911 -3.36543 -22.3603
LeftArm  -5.74486 14.5262 -14.0905
LeftForeArm  26.9457 -58.7707 -16.2348
LeftHand  -0.668074 1.8104 21.5486
RightShoulder  3.50323 5.96277 31.1054
RightArm  -39.762 28.5509 10.2508
RightForeArm  95.1473 80.5483 80.7566
RightHand  -3.98943 6.89364 -36.7477
LeftUpLeg  -23.7 8.33304 -10.7878
LeftLeg  40.7742 -7.05112 -6.03339
LeftFoot  2.26575 -1.2832 10.6496
LeftToes  1.24767e-006 1.47042e-008 1.32732e-009
62
root  -3.67547 36.2593 14.9049 160.789 -15.9319 -174.859
RightUpLeg  -15.6172 -26.7031 -23.2461
RightLeg  106.55 -6.17112 18.872
RightFoot  40.4263 -11.0038 23.0664
RightToes  -1.46203e-006 3.27826e-006 1.63871e-007
Spine  -2.50867 9.73735 2.01977
Spine1  21.0789 6.05497 3.59577
HEad  17.9304 -36.1598 3.74922
LeftShoulder1  1.94744 -3.56204 -21.1808
LeftArm  -7.00075 -2.47862 -15.354
LeftForeArm  30.5758 -61.0475 -17.627
LeftHand  -0.552874 2.261 20.3518
RightShoulder  3.93284 6.23056 34.5159
RightArm  -36.8781 9.06183 6.99282
RightForeArm  31.7493 68.603 27.33
RightHand  -4.25396 7.3038 -37.8258
LeftUpLeg  -15.7454 7.7679 -5.6723
LeftLeg  43.083 -7.84136 -7.37929
LeftFoot  0.457533 -1.58646 15.2259
LeftToes  1.24767e-006 1.47042e-008 1.32732e-009
63
root  -2.80992 36.5954 13.1274 149.459 -29.1604 -161.883
RightUpLeg  -23.2888 -35.0661 -26.3626
RightLeg  113.928 -10.7498 21.7001
RightFoot  41.4548 -12.2915 25.1039
RightToes  -1.46203e-006 3.27826e-006 1.63871e-007
Spine  -1.44639 4.3503 -8.70788
Spine1  19.0574 -5.36438 18.1894
HEad  22.9861 -39.1031 3.63697
LeftShoulder1  1.91432 -3.7691 -19.8565
LeftArm  -6.40559 -23.7561 -23.7875
LeftForeArm  34.3716 -63.5463 -19.4629
LeftHand  -0.533249 2.14987 18.9727
RightShoulder  3.9553 6.17611 34.9669
RightArm  -29.1515 -3.51169 7.57697
RightForeArm  4.41136 44.6475 10.7727
RightHand  -4.07501 7.47267 -35.9044
LeftUpLeg  -10.9982 13.6281 3.674
LeftLeg  47.6496 -4.82626 -5.16402
LeftFoot  -1.49307 -1.56411 18.0965
LeftToes  1.24767e-006 1.47042e-008 1.32732e-009
64
root  -1.71045 36.8967 11.2293 133.755 -36.4377 -143.4
RightUpLeg  -27.1609 -36.5956 -31.1115
RightLeg  116.617 -12.7165 22.625
RightFoot  42.2655 -11.6562 23.4719
RightToes  -1.46203e-006 3.27826e-006 1.63871e-007
Spine  4.79319 0.222022 -15.9754
Spine1  12.651 -13.481 30.1077
HEad  26.6283 -40.0997 5.10064
LeftShoulder1  1.73855 -3.96423 -16.5727
LeftArm  4.52871 -45.7431 -41.3398
LeftForeArm  39.4963 -65.1744 -20.529
LeftHand  -0.662412 1.00119 17.5034
RightShoulder  4.06792 6.24633 35.809
RightArm  -19.4291 -13.6036 10.8541
RightForeArm  -11.0179 23.9041 6.61093
RightHand  -3.63658 7.01523 -33.4083
LeftUpLeg  -8.58428 19.2276 16.2151
LeftLeg  47.9227 1.98202 2.74768
LeftFoot  -8.19019 -0.444691 17.7252
LeftToes  1.24767e-006 1.47042e-008 1.32732e-009
65
root  -0.70989 37.2777 9.43054 119.818 -35.5967 -123.905
RightUpLeg  -32.2474 -28.9631 -36.5958
RightLeg  110.744 -9.43003 22.395
RightFoot  40.0344 -11.3459 23.949
RightToes  -1.46203e-006 3.27826e-006 1.63871e-007
Spine  9.21643 -3.20411 -16.2799
Spine1  8.65593 -17.6488 36.8263
HEad  23.2312 -41.7303 11.2606
LeftShoulder1  1.49242 -4.15699 -12.4058
LeftArm  41.3839 -59.076 -81.5572
LeftForeArm  44.1762 -66.3642 -21.2911
LeftHand  -0.759804 -0.118778 16.0737
RightShoulder  4.51906 6.63162 38.5797
RightArm  -24.5063 -23.1112 15.5787
RightForeArm  -10.5253 9.42055 9.9248
RightHand  -2.81814 5.32341 -30.1389
LeftUpLeg  -9.31936 17.2013 28.4819
LeftLeg  42.6217 9.04536 9.21505
LeftFoot  -17.0521 0.973245 17.301
LeftToes  1.24767e-006 1.47042e-008 1.32732e-009
